{
	"asset":{
		"generator":"Khronos glTF Blender I/O v4.0.44",
		"version":"2.0"
	},
	"scene":0,
	"scenes":[
		{
			"name":"Scene",
			"nodes":[
				0,
				1,
				2,
				3,
				4,
				5
			]
		}
	],
	"nodes":[
		{
			"mesh":0,
			"name":"Plane"
		},
		{
			"mesh":1,
			"name":"Cube"
		},
		{
			"mesh":2,
			"name":"Suzanne"
		},
		{
			"mesh":3,
			"name":"Plane.001"
		},
		{
			"mesh":4,
			"name":"Torus"
		},
		{
			"mesh":5,
			"name":"Cube.001"
		}
	],
	"materials":[
		{
			"doubleSided":true,
			"name":"Grass",
			"normalTexture":{
				"index":0
			},
			"pbrMetallicRoughness":{
				"baseColorTexture":{
					"index":1
				},
				"metallicFactor":0,
				"roughnessFactor":0.6574802994728088
			}
		},
		{
			"doubleSided":true,
			"name":"blue",
			"pbrMetallicRoughness":{
				"baseColorTexture":{
					"index":2
				},
				"metallicFactor":0,
				"roughnessFactor":0.5
			}
		},
		{
			"doubleSided":true,
			"name":"white",
			"pbrMetallicRoughness":{
				"baseColorFactor":[
					0.800000011920929,
					0.800000011920929,
					0.800000011920929,
					1
				],
				"metallicFactor":0,
				"roughnessFactor":0.5
			}
		},
		{
			"doubleSided":true,
			"name":"red",
			"pbrMetallicRoughness":{
				"baseColorTexture":{
					"index":3
				},
				"metallicFactor":0,
				"roughnessFactor":0.5
			}
		},
		{
			"doubleSided":true,
			"name":"floor",
			"pbrMetallicRoughness":{
				"baseColorTexture":{
					"index":4
				},
				"metallicFactor":0.5905511379241943,
				"roughnessFactor":0.33464568853378296
			}
		},
		{
			"doubleSided":true,
			"name":"Material.002",
			"pbrMetallicRoughness":{
				"baseColorFactor":[
					0.8009309768676758,
					0.8009309768676758,
					0.8009309768676758,
					1
				],
				"metallicFactor":0,
				"roughnessFactor":0
			}
		},
		{
			"doubleSided":true,
			"name":"Material",
			"pbrMetallicRoughness":{
				"baseColorTexture":{
					"index":5
				},
				"metallicFactor":0,
				"roughnessFactor":0.5
			}
		},
		{
			"doubleSided":true,
			"name":"Material.003",
			"pbrMetallicRoughness":{
				"baseColorFactor":[
					0.8002997636795044,
					0.186638742685318,
					0.6227772235870361,
					1
				],
				"metallicFactor":0,
				"roughnessFactor":0.5
			}
		},
		{
			"doubleSided":true,
			"name":"Brick",
			"normalTexture":{
				"index":6
			},
			"pbrMetallicRoughness":{
				"baseColorTexture":{
					"index":7
				},
				"metallicFactor":0,
				"roughnessFactor":0.5
			}
		}
	],
	"meshes":[
		{
			"name":"Plane",
			"primitives":[
				{
					"attributes":{
						"POSITION":0,
						"NORMAL":1,
						"TEXCOORD_0":2
					},
					"indices":3,
					"material":0
				}
			]
		},
		{
			"name":"Cube.001",
			"primitives":[
				{
					"attributes":{
						"POSITION":4,
						"NORMAL":5,
						"TEXCOORD_0":6
					},
					"indices":7,
					"material":1
				},
				{
					"attributes":{
						"POSITION":8,
						"NORMAL":9,
						"TEXCOORD_0":10
					},
					"indices":11,
					"material":2
				},
				{
					"attributes":{
						"POSITION":12,
						"NORMAL":13,
						"TEXCOORD_0":14
					},
					"indices":15,
					"material":3
				},
				{
					"attributes":{
						"POSITION":16,
						"NORMAL":17,
						"TEXCOORD_0":18
					},
					"indices":19,
					"material":4
				}
			]
		},
		{
			"name":"Suzanne",
			"primitives":[
				{
					"attributes":{
						"POSITION":20,
						"NORMAL":21,
						"TEXCOORD_0":22
					},
					"indices":23,
					"material":5
				}
			]
		},
		{
			"name":"Plane.001",
			"primitives":[
				{
					"attributes":{
						"POSITION":24,
						"NORMAL":25,
						"TEXCOORD_0":26
					},
					"indices":7,
					"material":6
				}
			]
		},
		{
			"name":"Torus",
			"primitives":[
				{
					"attributes":{
						"POSITION":27,
						"NORMAL":28,
						"TEXCOORD_0":29
					},
					"indices":30,
					"material":7
				}
			]
		},
		{
			"name":"Cube",
			"primitives":[
				{
					"attributes":{
						"POSITION":31,
						"NORMAL":32,
						"TEXCOORD_0":33
					},
					"indices":34,
					"material":8
				}
			]
		}
	],
	"textures":[
		{
			"sampler":0,
			"source":0
		},
		{
			"sampler":0,
			"source":1
		},
		{
			"sampler":0,
			"source":2
		},
		{
			"sampler":0,
			"source":3
		},
		{
			"sampler":1,
			"source":4
		},
		{
			"sampler":1,
			"source":4
		},
		{
			"sampler":0,
			"source":5
		},
		{
			"sampler":0,
			"source":6
		}
	],
	"images":[
		{
			"mimeType":"image/jpeg",
			"name":"Grass004_4K_NormalDX",
			"uri":"textures/Grass004_4K_NormalDX.jpg"
		},
		{
			"mimeType":"image/jpeg",
			"name":"Grass004_4K_Color",
			"uri":"textures/Grass004_4K_Color.jpg"
		},
		{
			"mimeType":"image/png",
			"name":"blue",
			"uri":"textures/blue.png"
		},
		{
			"mimeType":"image/png",
			"name":"red",
			"uri":"textures/red.png"
		},
		{
			"mimeType":"image/png",
			"name":"floor",
			"uri":"textures/floor.png"
		},
		{
			"mimeType":"image/jpeg",
			"name":"Bricks097_2K-JPG_NormalGL",
			"uri":"textures/Bricks097_2K-JPG_NormalGL.jpg"
		},
		{
			"mimeType":"image/jpeg",
			"name":"Bricks097_2K-JPG_Color",
			"uri":"textures/Bricks097_2K-JPG_Color.jpg"
		}
	],
	"accessors":[
		{
			"bufferView":0,
			"componentType":5126,
			"count":241,
			"max":[
				49.1501350402832,
				0.6486220359802246,
				39.94398880004883
			],
			"min":[
				-49.19309616088867,
				-4.741973876953125,
				-58.267791748046875
			],
			"type":"VEC3"
		},
		{
			"bufferView":1,
			"componentType":5126,
			"count":241,
			"type":"VEC3"
		},
		{
			"bufferView":2,
			"componentType":5126,
			"count":241,
			"type":"VEC2"
		},
		{
			"bufferView":3,
			"componentType":5123,
			"count":1320,
			"type":"SCALAR"
		},
		{
			"bufferView":4,
			"componentType":5126,
			"count":4,
			"max":[
				-1.8765294551849365,
				2.2046456336975098,
				-5.70265007019043
			],
			"min":[
				-1.8765294551849365,
				-1.0365121364593506,
				-9.455708503723145
			],
			"type":"VEC3"
		},
		{
			"bufferView":5,
			"componentType":5126,
			"count":4,
			"type":"VEC3"
		},
		{
			"bufferView":6,
			"componentType":5126,
			"count":4,
			"type":"VEC2"
		},
		{
			"bufferView":7,
			"componentType":5123,
			"count":6,
			"type":"SCALAR"
		},
		{
			"bufferView":8,
			"componentType":5126,
			"count":24,
			"max":[
				1.8765294551849365,
				2.2046456336975098,
				-5.70265007019043
			],
			"min":[
				-1.8765294551849365,
				-1.3775265216827393,
				-9.455708503723145
			],
			"type":"VEC3"
		},
		{
			"bufferView":9,
			"componentType":5126,
			"count":24,
			"type":"VEC3"
		},
		{
			"bufferView":10,
			"componentType":5126,
			"count":24,
			"type":"VEC2"
		},
		{
			"bufferView":11,
			"componentType":5123,
			"count":36,
			"type":"SCALAR"
		},
		{
			"bufferView":12,
			"componentType":5126,
			"count":4,
			"max":[
				1.8765294551849365,
				2.2046456336975098,
				-5.70265007019043
			],
			"min":[
				1.8765294551849365,
				-1.0365121364593506,
				-9.455708503723145
			],
			"type":"VEC3"
		},
		{
			"bufferView":13,
			"componentType":5126,
			"count":4,
			"type":"VEC3"
		},
		{
			"bufferView":14,
			"componentType":5126,
			"count":4,
			"type":"VEC2"
		},
		{
			"bufferView":15,
			"componentType":5123,
			"count":6,
			"type":"SCALAR"
		},
		{
			"bufferView":16,
			"componentType":5126,
			"count":4,
			"max":[
				1.8765294551849365,
				-1.0365121364593506,
				-5.70265007019043
			],
			"min":[
				-1.8765294551849365,
				-1.0365121364593506,
				-9.455708503723145
			],
			"type":"VEC3"
		},
		{
			"bufferView":17,
			"componentType":5126,
			"count":4,
			"type":"VEC3"
		},
		{
			"bufferView":18,
			"componentType":5126,
			"count":4,
			"type":"VEC2"
		},
		{
			"bufferView":19,
			"componentType":5123,
			"count":6,
			"type":"SCALAR"
		},
		{
			"bufferView":20,
			"componentType":5126,
			"count":1221,
			"max":[
				13.597335815429688,
				3.430922269821167,
				-8.614006042480469
			],
			"min":[
				6.627907752990723,
				-1.2645814418792725,
				-14.637063980102539
			],
			"type":"VEC3"
		},
		{
			"bufferView":21,
			"componentType":5126,
			"count":1221,
			"type":"VEC3"
		},
		{
			"bufferView":22,
			"componentType":5126,
			"count":1221,
			"type":"VEC2"
		},
		{
			"bufferView":23,
			"componentType":5123,
			"count":2904,
			"type":"SCALAR"
		},
		{
			"bufferView":24,
			"componentType":5126,
			"count":4,
			"max":[
				-25.595434188842773,
				4.685523986816406,
				2.8685336112976074
			],
			"min":[
				-25.595434188842773,
				-1.0515429973602295,
				-2.8685336112976074
			],
			"type":"VEC3"
		},
		{
			"bufferView":25,
			"componentType":5126,
			"count":4,
			"type":"VEC3"
		},
		{
			"bufferView":26,
			"componentType":5126,
			"count":4,
			"type":"VEC2"
		},
		{
			"bufferView":27,
			"componentType":5126,
			"count":2412,
			"max":[
				1.0660686492919922,
				1.7052180767059326,
				-6.8437395095825195
			],
			"min":[
				-1.0660686492919922,
				-0.3479078412055969,
				-7.857333183288574
			],
			"type":"VEC3"
		},
		{
			"bufferView":28,
			"componentType":5126,
			"count":2412,
			"type":"VEC3"
		},
		{
			"bufferView":29,
			"componentType":5126,
			"count":2412,
			"type":"VEC2"
		},
		{
			"bufferView":30,
			"componentType":5123,
			"count":3456,
			"type":"SCALAR"
		},
		{
			"bufferView":31,
			"componentType":5126,
			"count":24,
			"max":[
				-9.576164245605469,
				5.461230278015137,
				-28.351734161376953
			],
			"min":[
				-20.619447708129883,
				-2.4847099781036377,
				-39.395015716552734
			],
			"type":"VEC3"
		},
		{
			"bufferView":32,
			"componentType":5126,
			"count":24,
			"type":"VEC3"
		},
		{
			"bufferView":33,
			"componentType":5126,
			"count":24,
			"type":"VEC2"
		},
		{
			"bufferView":34,
			"componentType":5123,
			"count":36,
			"type":"SCALAR"
		}
	],
	"bufferViews":[
		{
			"buffer":0,
			"byteLength":2892,
			"byteOffset":0,
			"target":34962
		},
		{
			"buffer":0,
			"byteLength":2892,
			"byteOffset":2892,
			"target":34962
		},
		{
			"buffer":0,
			"byteLength":1928,
			"byteOffset":5784,
			"target":34962
		},
		{
			"buffer":0,
			"byteLength":2640,
			"byteOffset":7712,
			"target":34963
		},
		{
			"buffer":0,
			"byteLength":48,
			"byteOffset":10352,
			"target":34962
		},
		{
			"buffer":0,
			"byteLength":48,
			"byteOffset":10400,
			"target":34962
		},
		{
			"buffer":0,
			"byteLength":32,
			"byteOffset":10448,
			"target":34962
		},
		{
			"buffer":0,
			"byteLength":12,
			"byteOffset":10480,
			"target":34963
		},
		{
			"buffer":0,
			"byteLength":288,
			"byteOffset":10492,
			"target":34962
		},
		{
			"buffer":0,
			"byteLength":288,
			"byteOffset":10780,
			"target":34962
		},
		{
			"buffer":0,
			"byteLength":192,
			"byteOffset":11068,
			"target":34962
		},
		{
			"buffer":0,
			"byteLength":72,
			"byteOffset":11260,
			"target":34963
		},
		{
			"buffer":0,
			"byteLength":48,
			"byteOffset":11332,
			"target":34962
		},
		{
			"buffer":0,
			"byteLength":48,
			"byteOffset":11380,
			"target":34962
		},
		{
			"buffer":0,
			"byteLength":32,
			"byteOffset":11428,
			"target":34962
		},
		{
			"buffer":0,
			"byteLength":12,
			"byteOffset":11460,
			"target":34963
		},
		{
			"buffer":0,
			"byteLength":48,
			"byteOffset":11472,
			"target":34962
		},
		{
			"buffer":0,
			"byteLength":48,
			"byteOffset":11520,
			"target":34962
		},
		{
			"buffer":0,
			"byteLength":32,
			"byteOffset":11568,
			"target":34962
		},
		{
			"buffer":0,
			"byteLength":12,
			"byteOffset":11600,
			"target":34963
		},
		{
			"buffer":0,
			"byteLength":14652,
			"byteOffset":11612,
			"target":34962
		},
		{
			"buffer":0,
			"byteLength":14652,
			"byteOffset":26264,
			"target":34962
		},
		{
			"buffer":0,
			"byteLength":9768,
			"byteOffset":40916,
			"target":34962
		},
		{
			"buffer":0,
			"byteLength":5808,
			"byteOffset":50684,
			"target":34963
		},
		{
			"buffer":0,
			"byteLength":48,
			"byteOffset":56492,
			"target":34962
		},
		{
			"buffer":0,
			"byteLength":48,
			"byteOffset":56540,
			"target":34962
		},
		{
			"buffer":0,
			"byteLength":32,
			"byteOffset":56588,
			"target":34962
		},
		{
			"buffer":0,
			"byteLength":28944,
			"byteOffset":56620,
			"target":34962
		},
		{
			"buffer":0,
			"byteLength":28944,
			"byteOffset":85564,
			"target":34962
		},
		{
			"buffer":0,
			"byteLength":19296,
			"byteOffset":114508,
			"target":34962
		},
		{
			"buffer":0,
			"byteLength":6912,
			"byteOffset":133804,
			"target":34963
		},
		{
			"buffer":0,
			"byteLength":288,
			"byteOffset":140716,
			"target":34962
		},
		{
			"buffer":0,
			"byteLength":288,
			"byteOffset":141004,
			"target":34962
		},
		{
			"buffer":0,
			"byteLength":192,
			"byteOffset":141292,
			"target":34962
		},
		{
			"buffer":0,
			"byteLength":72,
			"byteOffset":141484,
			"target":34963
		}
	],
	"samplers":[
		{
			"magFilter":9729,
			"minFilter":9987
		},
		{
			"magFilter":9728,
			"minFilter":9984
		}
	],
	"buffers":[
		{
			"byteLength":141556,
			"uri":"bigscene.bin"
		}
	]
}
