{
	"asset":{
		"generator":"Khronos glTF Blender I/O v4.0.44",
		"version":"2.0"
	},
	"extensionsUsed":[
		"EXT_texture_webp",
		"KHR_materials_transmission",
		"KHR_materials_ior"
	],
	"scene":0,
	"scenes":[
		{
			"name":"Scene",
			"nodes":[
				0,
				1
			]
		}
	],
	"nodes":[
		{
			"mesh":0,
			"name":"Cube.001"
		},
		{
			"mesh":1,
			"name":"Sphere",
			"scale":[
				0.753070056438446,
				0.753070056438446,
				0.753070056438446
			]
		}
	],
	"materials":[
		{
			"alphaMode":"BLEND",
			"doubleSided":true,
			"name":"Material.005",
			"pbrMetallicRoughness":{
				"baseColorTexture":{
					"index":0
				},
				"metallicFactor":0,
				"roughnessFactor":0.5
			}
		},
		{
			"alphaMode":"BLEND",
			"doubleSided":true,
			"name":"Material.006",
			"pbrMetallicRoughness":{
				"baseColorTexture":{
					"index":1
				},
				"metallicFactor":0.5433070659637451,
				"roughnessFactor":0.4921259880065918
			}
		},
		{
			"alphaMode":"BLEND",
			"doubleSided":true,
			"name":"Material.007",
			"pbrMetallicRoughness":{
				"baseColorTexture":{
					"index":2
				},
				"metallicFactor":0,
				"roughnessFactor":0.5
			}
		},
		{
			"alphaMode":"BLEND",
			"doubleSided":true,
			"name":"backwall.001",
			"pbrMetallicRoughness":{
				"baseColorTexture":{
					"index":3
				},
				"metallicFactor":0,
				"roughnessFactor":0.5
			}
		},
		{
			"doubleSided":true,
			"name":"leftwall.001",
			"pbrMetallicRoughness":{
				"baseColorTexture":{
					"index":4
				},
				"metallicFactor":0,
				"roughnessFactor":0.5
			}
		},
		{
			"doubleSided":true,
			"name":"rightwall.001",
			"pbrMetallicRoughness":{
				"baseColorTexture":{
					"index":5
				},
				"metallicFactor":0,
				"roughnessFactor":0.5
			}
		},
		{
			"alphaMode":"BLEND",
			"doubleSided":true,
			"name":"monke.001",
			"pbrMetallicRoughness":{
				"baseColorTexture":{
					"index":6
				},
				"metallicFactor":0,
				"roughnessFactor":0.5
			}
		},
		{
			"doubleSided":true,
			"name":"metal.001",
			"pbrMetallicRoughness":{
				"baseColorFactor":[
					0.800000011920929,
					0.800000011920929,
					0.800000011920929,
					1
				],
				"roughnessFactor":0.20078739523887634
			}
		},
		{
			"doubleSided":true,
			"extensions":{
				"KHR_materials_transmission":{
					"transmissionFactor":1
				},
				"KHR_materials_ior":{
					"ior":1.4500000476837158
				}
			},
			"name":"Material.008",
			"pbrMetallicRoughness":{
				"baseColorFactor":[
					0.800000011920929,
					0.800000011920929,
					0.800000011920929,
					1
				],
				"metallicFactor":0,
				"roughnessFactor":0.19685038924217224
			}
		}
	],
	"meshes":[
		{
			"name":"Cube.001",
			"primitives":[
				{
					"attributes":{
						"POSITION":0,
						"NORMAL":1,
						"TEXCOORD_0":2
					},
					"indices":3,
					"material":0
				},
				{
					"attributes":{
						"POSITION":4,
						"NORMAL":5,
						"TEXCOORD_0":6
					},
					"indices":7,
					"material":1
				},
				{
					"attributes":{
						"POSITION":8,
						"NORMAL":9,
						"TEXCOORD_0":10
					},
					"indices":11,
					"material":2
				},
				{
					"attributes":{
						"POSITION":12,
						"NORMAL":13,
						"TEXCOORD_0":14
					},
					"indices":15,
					"material":3
				},
				{
					"attributes":{
						"POSITION":16,
						"NORMAL":17,
						"TEXCOORD_0":18
					},
					"indices":15,
					"material":4
				},
				{
					"attributes":{
						"POSITION":19,
						"NORMAL":20,
						"TEXCOORD_0":21
					},
					"indices":22,
					"material":5
				},
				{
					"attributes":{
						"POSITION":23,
						"NORMAL":24,
						"TEXCOORD_0":25
					},
					"indices":26,
					"material":6
				},
				{
					"attributes":{
						"POSITION":27,
						"NORMAL":28,
						"TEXCOORD_0":29
					},
					"indices":30,
					"material":7
				}
			]
		},
		{
			"name":"Sphere.002",
			"primitives":[
				{
					"attributes":{
						"POSITION":31,
						"NORMAL":32,
						"TEXCOORD_0":33
					},
					"indices":34,
					"material":8
				}
			]
		}
	],
	"textures":[
		{
			"extensions":{
				"EXT_texture_webp":{
					"source":0
				}
			},
			"sampler":0,
			"source":1
		},
		{
			"extensions":{
				"EXT_texture_webp":{
					"source":2
				}
			},
			"sampler":0,
			"source":3
		},
		{
			"extensions":{
				"EXT_texture_webp":{
					"source":4
				}
			},
			"sampler":0,
			"source":5
		},
		{
			"extensions":{
				"EXT_texture_webp":{
					"source":6
				}
			},
			"sampler":0,
			"source":7
		},
		{
			"extensions":{
				"EXT_texture_webp":{
					"source":8
				}
			},
			"sampler":0,
			"source":9
		},
		{
			"extensions":{
				"EXT_texture_webp":{
					"source":10
				}
			},
			"sampler":0,
			"source":11
		},
		{
			"extensions":{
				"EXT_texture_webp":{
					"source":12
				}
			},
			"sampler":0,
			"source":13
		}
	],
	"images":[
		{
			"mimeType":"image/webp",
			"name":"texture1",
			"uri":"textures/texture1.webp"
		},
		{
			"mimeType":"image/png",
			"name":"texture1",
			"uri":"textures/texture1.png"
		},
		{
			"mimeType":"image/webp",
			"name":"floor",
			"uri":"textures/floor.webp"
		},
		{
			"mimeType":"image/png",
			"name":"floor",
			"uri":"textures/floor.png"
		},
		{
			"mimeType":"image/webp",
			"name":"objects",
			"uri":"textures/objects.webp"
		},
		{
			"mimeType":"image/png",
			"name":"objects",
			"uri":"textures/objects.png"
		},
		{
			"mimeType":"image/webp",
			"name":"logo2",
			"uri":"textures/logo2.webp"
		},
		{
			"mimeType":"image/png",
			"name":"logo2",
			"uri":"textures/logo2.png"
		},
		{
			"mimeType":"image/webp",
			"name":"blue",
			"uri":"textures/blue.webp"
		},
		{
			"mimeType":"image/png",
			"name":"blue",
			"uri":"textures/blue.png"
		},
		{
			"mimeType":"image/webp",
			"name":"red",
			"uri":"textures/red.webp"
		},
		{
			"mimeType":"image/png",
			"name":"red",
			"uri":"textures/red.png"
		},
		{
			"mimeType":"image/webp",
			"name":"monkey",
			"uri":"textures/monkey.webp"
		},
		{
			"mimeType":"image/png",
			"name":"monkey",
			"uri":"textures/monkey.png"
		}
	],
	"accessors":[
		{
			"bufferView":0,
			"componentType":5126,
			"count":4,
			"max":[
				4.836304664611816,
				3.361741542816162,
				9.0255126953125
			],
			"min":[
				-4.83629846572876,
				3.36173677444458,
				-0.6470913290977478
			],
			"type":"VEC3"
		},
		{
			"bufferView":1,
			"componentType":5126,
			"count":4,
			"type":"VEC3"
		},
		{
			"bufferView":2,
			"componentType":5126,
			"count":4,
			"type":"VEC2"
		},
		{
			"bufferView":3,
			"componentType":5123,
			"count":6,
			"type":"SCALAR"
		},
		{
			"bufferView":4,
			"componentType":5126,
			"count":4,
			"max":[
				4.836304664611816,
				-1.3057000637054443,
				9.02550983428955
			],
			"min":[
				-4.83629846572876,
				-1.3057048320770264,
				-0.6470935344696045
			],
			"type":"VEC3"
		},
		{
			"bufferView":5,
			"componentType":5126,
			"count":4,
			"type":"VEC3"
		},
		{
			"bufferView":6,
			"componentType":5126,
			"count":4,
			"type":"VEC2"
		},
		{
			"bufferView":7,
			"componentType":5123,
			"count":6,
			"type":"SCALAR"
		},
		{
			"bufferView":8,
			"componentType":5126,
			"count":759,
			"max":[
				3.775419235229492,
				1.3080503940582275,
				7.354274272918701
			],
			"min":[
				-1.2185306549072266,
				-1.1290168762207031,
				3.436135768890381
			],
			"type":"VEC3"
		},
		{
			"bufferView":9,
			"componentType":5126,
			"count":759,
			"type":"VEC3"
		},
		{
			"bufferView":10,
			"componentType":5126,
			"count":759,
			"type":"VEC2"
		},
		{
			"bufferView":11,
			"componentType":5123,
			"count":3828,
			"type":"SCALAR"
		},
		{
			"bufferView":12,
			"componentType":5126,
			"count":4,
			"max":[
				4.836304664611816,
				3.36173677444458,
				9.0255126953125
			],
			"min":[
				-4.836291313171387,
				-1.3057048320770264,
				9.025503158569336
			],
			"type":"VEC3"
		},
		{
			"bufferView":13,
			"componentType":5126,
			"count":4,
			"type":"VEC3"
		},
		{
			"bufferView":14,
			"componentType":5126,
			"count":4,
			"type":"VEC2"
		},
		{
			"bufferView":15,
			"componentType":5123,
			"count":6,
			"type":"SCALAR"
		},
		{
			"bufferView":16,
			"componentType":5126,
			"count":4,
			"max":[
				-4.836291313171387,
				3.361741542816162,
				9.0255126953125
			],
			"min":[
				-4.83629846572876,
				-1.3057048320770264,
				-0.6470865607261658
			],
			"type":"VEC3"
		},
		{
			"bufferView":17,
			"componentType":5126,
			"count":4,
			"type":"VEC3"
		},
		{
			"bufferView":18,
			"componentType":5126,
			"count":4,
			"type":"VEC2"
		},
		{
			"bufferView":19,
			"componentType":5126,
			"count":4,
			"max":[
				4.836304664611816,
				3.361741542816162,
				9.025506019592285
			],
			"min":[
				4.836297512054443,
				-1.3057048320770264,
				-0.6470935344696045
			],
			"type":"VEC3"
		},
		{
			"bufferView":20,
			"componentType":5126,
			"count":4,
			"type":"VEC3"
		},
		{
			"bufferView":21,
			"componentType":5126,
			"count":4,
			"type":"VEC2"
		},
		{
			"bufferView":22,
			"componentType":5123,
			"count":6,
			"type":"SCALAR"
		},
		{
			"bufferView":23,
			"componentType":5126,
			"count":638,
			"max":[
				1.4535466432571411,
				1.2603046894073486,
				8.857649803161621
			],
			"min":[
				-1.4535346031188965,
				-0.8327935338020325,
				7.0469536781311035
			],
			"type":"VEC3"
		},
		{
			"bufferView":24,
			"componentType":5126,
			"count":638,
			"type":"VEC3"
		},
		{
			"bufferView":25,
			"componentType":5126,
			"count":638,
			"type":"VEC2"
		},
		{
			"bufferView":26,
			"componentType":5123,
			"count":2568,
			"type":"SCALAR"
		},
		{
			"bufferView":27,
			"componentType":5126,
			"count":559,
			"max":[
				-1.938354253768921,
				0.9592389464378357,
				5.109389781951904
			],
			"min":[
				-3.7787117958068848,
				-0.8811197876930237,
				3.2690322399139404
			],
			"type":"VEC3"
		},
		{
			"bufferView":28,
			"componentType":5126,
			"count":559,
			"type":"VEC3"
		},
		{
			"bufferView":29,
			"componentType":5126,
			"count":559,
			"type":"VEC2"
		},
		{
			"bufferView":30,
			"componentType":5123,
			"count":2880,
			"type":"SCALAR"
		},
		{
			"bufferView":31,
			"componentType":5126,
			"count":559,
			"max":[
				0.9999990463256836,
				1.0749086141586304,
				0.9999998807907104
			],
			"min":[
				-0.9999997019767761,
				-0.9250907897949219,
				-1.0000001192092896
			],
			"type":"VEC3"
		},
		{
			"bufferView":32,
			"componentType":5126,
			"count":559,
			"type":"VEC3"
		},
		{
			"bufferView":33,
			"componentType":5126,
			"count":559,
			"type":"VEC2"
		},
		{
			"bufferView":34,
			"componentType":5123,
			"count":2880,
			"type":"SCALAR"
		}
	],
	"bufferViews":[
		{
			"buffer":0,
			"byteLength":48,
			"byteOffset":0,
			"target":34962
		},
		{
			"buffer":0,
			"byteLength":48,
			"byteOffset":48,
			"target":34962
		},
		{
			"buffer":0,
			"byteLength":32,
			"byteOffset":96,
			"target":34962
		},
		{
			"buffer":0,
			"byteLength":12,
			"byteOffset":128,
			"target":34963
		},
		{
			"buffer":0,
			"byteLength":48,
			"byteOffset":140,
			"target":34962
		},
		{
			"buffer":0,
			"byteLength":48,
			"byteOffset":188,
			"target":34962
		},
		{
			"buffer":0,
			"byteLength":32,
			"byteOffset":236,
			"target":34962
		},
		{
			"buffer":0,
			"byteLength":12,
			"byteOffset":268,
			"target":34963
		},
		{
			"buffer":0,
			"byteLength":9108,
			"byteOffset":280,
			"target":34962
		},
		{
			"buffer":0,
			"byteLength":9108,
			"byteOffset":9388,
			"target":34962
		},
		{
			"buffer":0,
			"byteLength":6072,
			"byteOffset":18496,
			"target":34962
		},
		{
			"buffer":0,
			"byteLength":7656,
			"byteOffset":24568,
			"target":34963
		},
		{
			"buffer":0,
			"byteLength":48,
			"byteOffset":32224,
			"target":34962
		},
		{
			"buffer":0,
			"byteLength":48,
			"byteOffset":32272,
			"target":34962
		},
		{
			"buffer":0,
			"byteLength":32,
			"byteOffset":32320,
			"target":34962
		},
		{
			"buffer":0,
			"byteLength":12,
			"byteOffset":32352,
			"target":34963
		},
		{
			"buffer":0,
			"byteLength":48,
			"byteOffset":32364,
			"target":34962
		},
		{
			"buffer":0,
			"byteLength":48,
			"byteOffset":32412,
			"target":34962
		},
		{
			"buffer":0,
			"byteLength":32,
			"byteOffset":32460,
			"target":34962
		},
		{
			"buffer":0,
			"byteLength":48,
			"byteOffset":32492,
			"target":34962
		},
		{
			"buffer":0,
			"byteLength":48,
			"byteOffset":32540,
			"target":34962
		},
		{
			"buffer":0,
			"byteLength":32,
			"byteOffset":32588,
			"target":34962
		},
		{
			"buffer":0,
			"byteLength":12,
			"byteOffset":32620,
			"target":34963
		},
		{
			"buffer":0,
			"byteLength":7656,
			"byteOffset":32632,
			"target":34962
		},
		{
			"buffer":0,
			"byteLength":7656,
			"byteOffset":40288,
			"target":34962
		},
		{
			"buffer":0,
			"byteLength":5104,
			"byteOffset":47944,
			"target":34962
		},
		{
			"buffer":0,
			"byteLength":5136,
			"byteOffset":53048,
			"target":34963
		},
		{
			"buffer":0,
			"byteLength":6708,
			"byteOffset":58184,
			"target":34962
		},
		{
			"buffer":0,
			"byteLength":6708,
			"byteOffset":64892,
			"target":34962
		},
		{
			"buffer":0,
			"byteLength":4472,
			"byteOffset":71600,
			"target":34962
		},
		{
			"buffer":0,
			"byteLength":5760,
			"byteOffset":76072,
			"target":34963
		},
		{
			"buffer":0,
			"byteLength":6708,
			"byteOffset":81832,
			"target":34962
		},
		{
			"buffer":0,
			"byteLength":6708,
			"byteOffset":88540,
			"target":34962
		},
		{
			"buffer":0,
			"byteLength":4472,
			"byteOffset":95248,
			"target":34962
		},
		{
			"buffer":0,
			"byteLength":5760,
			"byteOffset":99720,
			"target":34963
		}
	],
	"samplers":[
		{
			"magFilter":9729,
			"minFilter":9987
		}
	],
	"buffers":[
		{
			"byteLength":105480,
			"uri":"scene.bin"
		}
	]
}
